<?xml version="1.0" encoding="UTF-8"?>
<svg id="Layer_2" data-name="Layer 2" xmlns="http://www.w3.org/2000/svg" viewBox="0 0 2851.09 383.29">
  <defs>
    <style>
      .cls-1 {
        fill: #eec31c;
      }

      .cls-1, .cls-2, .cls-3 {
        stroke: #fff;
        stroke-miterlimit: 10;
        stroke-width: 16px;
      }

      .cls-4 {
        fill: #fff;
      }

      .cls-2 {
        fill: #1782a3;
      }

      .cls-3 {
        fill: #6ec2e3;
      }
    </style>
  </defs>
  <g id="Layer_1-2" data-name="Layer 1">
    <g>
      <path class="cls-4" d="M509.75,81.45c1.78,0,2.67,1.04,2.67,3.12v102.81c0,1.59-.4,2.7-1.19,3.34-.79.65-2.03.97-3.71.97h-24.81c-1.59,0-2.65-.3-3.19-.89-.55-.59-.82-1.53-.82-2.82v-103.1c0-2.28.94-3.42,2.82-3.42h28.23Z"/>
      <path class="cls-4" d="M526.24,187.97v-71.61c0-2.28.94-3.42,2.82-3.42h23.92c1.78,0,2.67.99,2.67,2.97v6.69c0,.59.17.99.52,1.19.35.2.82,0,1.41-.59,2.08-2.28,4.36-4.31,6.83-6.09,2.47-1.78,5.13-3.17,7.95-4.16,2.82-.99,5.77-1.49,8.84-1.49,6.93,0,12.55,2.18,16.86,6.54,4.31,4.36,6.46,10.2,6.46,17.53v51.7c0,2.97-1.49,4.46-4.46,4.46h-21.84c-1.29,0-2.18-.27-2.67-.82-.5-.54-.74-1.51-.74-2.9v-48.43c0-2.28-.72-4.04-2.15-5.27-1.44-1.24-3.34-1.86-5.72-1.86-1.49,0-2.9.27-4.23.82-1.34.55-2.55,1.36-3.64,2.45-1.09,1.09-2.13,2.48-3.12,4.16v47.54c0,2.87-1.63,4.31-4.9,4.31h-20.95c-2.58,0-3.86-1.24-3.86-3.71Z"/>
      <path class="cls-4" d="M659.5,130.85c-2.38-1.43-5.4-2.15-9.06-2.15-2.58,0-4.81.45-6.69,1.34-1.88.89-2.82,2.18-2.82,3.86,0,.69.32,1.39.97,2.08.64.69,2.3,1.29,4.98,1.78l15.75,3.27c9.21,1.88,15.67,5.15,19.39,9.81,3.71,4.66,5.57,9.86,5.57,15.6s-1.59,10.6-4.75,14.56c-3.17,3.96-7.58,6.98-13.22,9.06-5.65,2.08-12.18,3.12-19.61,3.12-9.51,0-17.43-1.58-23.77-4.75-6.34-3.17-10.75-6.98-13.22-11.44-.5-.89-.74-1.73-.74-2.53s.35-1.39,1.04-1.78l12.93-6.54c1.29-.59,2.25-.84,2.9-.74.64.1,1.21.45,1.71,1.04,1.19,1.29,2.5,2.6,3.94,3.94,1.43,1.34,3.37,2.45,5.79,3.34,2.43.89,5.62,1.29,9.58,1.19,2.08-.1,3.96-.32,5.65-.67,1.68-.35,3.02-.92,4.01-1.71.99-.79,1.49-1.78,1.49-2.97,0-.99-.42-1.88-1.26-2.67-.84-.79-2.7-1.43-5.57-1.93l-15.15-2.67c-7.53-1.39-13.42-3.99-17.68-7.8-4.26-3.81-6.44-9.09-6.54-15.82,0-5.15,1.36-9.78,4.09-13.89,2.72-4.11,6.76-7.35,12.11-9.73,5.35-2.38,11.83-3.57,19.46-3.57,8.12,0,15.03,1.46,20.72,4.38,5.69,2.92,9.63,6.22,11.81,9.88.49.69.89,1.49,1.19,2.38s-.1,1.58-1.19,2.08l-13.67,6.54c-.89.4-1.69.47-2.38.22-.69-.25-1.34-.72-1.93-1.41-1.49-1.68-3.42-3.24-5.79-4.68Z"/>
      <path class="cls-4" d="M734.52,133c-1.29,0-1.93.65-1.93,1.93v28.52c0,2.58.82,4.53,2.45,5.87,1.63,1.34,4.28,2,7.95,2h6.39c.79,0,1.43.3,1.93.89.49.59.74,1.29.74,2.08l-.15,11.88c0,2.38-1.44,3.86-4.31,4.46-2.18.3-4.38.52-6.61.67-2.23.15-4.46.25-6.69.3-2.23.05-4.48.07-6.76.07-7.13,0-13.02-1.71-17.68-5.12-4.66-3.42-6.98-8.29-6.98-14.63v-36.25c0-1.78-.74-2.67-2.23-2.67h-7.13c-2.38,0-3.57-1.09-3.57-3.27v-13.96c0-1.88,1.09-2.82,3.27-2.82h8.77c1.09,0,1.68-.59,1.78-1.78l2.38-21.99c.2-1.98,1.09-2.97,2.67-2.97h21.84c1.88,0,2.82,1.09,2.82,3.27v21.69c0,1.09.54,1.63,1.63,1.63h13.67c2.18,0,3.27.94,3.27,2.82v14.11c0,2.18-1.24,3.27-3.71,3.27h-13.82Z"/>
      <path class="cls-4" d="M791.72,102.1c0,2.87-1.63,4.31-4.9,4.31h-20.95c-1.49,0-2.5-.32-3.05-.97-.55-.64-.82-1.61-.82-2.9v-17.68c0-2.28.94-3.42,2.82-3.42h24.22c1.78,0,2.67,1.04,2.67,3.12v17.53ZM791.72,187.38c0,1.59-.4,2.7-1.19,3.34-.79.65-2.03.97-3.71.97h-20.95c-1.49,0-2.5-.3-3.05-.89-.55-.59-.82-1.53-.82-2.82v-71.61c0-2.28.94-3.42,2.82-3.42h24.22c1.78,0,2.67.99,2.67,2.97v71.46Z"/>
      <path class="cls-4" d="M845.05,133c-1.29,0-1.93.65-1.93,1.93v28.52c0,2.58.82,4.53,2.45,5.87,1.63,1.34,4.28,2,7.95,2h6.39c.79,0,1.43.3,1.93.89.49.59.74,1.29.74,2.08l-.15,11.88c0,2.38-1.44,3.86-4.31,4.46-2.18.3-4.38.52-6.61.67-2.23.15-4.46.25-6.69.3-2.23.05-4.48.07-6.76.07-7.13,0-13.02-1.71-17.68-5.12-4.66-3.42-6.98-8.29-6.98-14.63v-36.25c0-1.78-.74-2.67-2.23-2.67h-7.13c-2.38,0-3.57-1.09-3.57-3.27v-13.96c0-1.88,1.09-2.82,3.27-2.82h8.77c1.09,0,1.68-.59,1.78-1.78l2.38-21.99c.2-1.98,1.09-2.97,2.67-2.97h21.84c1.88,0,2.82,1.09,2.82,3.27v21.69c0,1.09.54,1.63,1.63,1.63h13.67c2.18,0,3.27.94,3.27,2.82v14.11c0,2.18-1.24,3.27-3.71,3.27h-13.82Z"/>
      <path class="cls-4" d="M915.1,170.59c1.93-1.19,3.54-2.62,4.83-4.31v-49.03c0-2.87,1.63-4.31,4.9-4.31h21.24c2.57,0,3.86,1.29,3.86,3.86l-.59,71.61c0,2.18-.94,3.27-2.82,3.27h-23.47c-1.78,0-2.67-.99-2.67-2.97v-6.54c0-.59-.17-.97-.52-1.11-.35-.15-.77.03-1.26.52-3.37,3.96-7.08,6.88-11.14,8.77-4.06,1.88-8.57,2.82-13.52,2.82-4.26,0-8.05-.97-11.37-2.9-3.32-1.93-5.94-4.75-7.87-8.47-1.93-3.71-2.9-8.19-2.9-13.44v-50.96c0-2.97,1.53-4.46,4.61-4.46h21.69c2.28,0,3.42,1.29,3.42,3.86v48.28c0,2.28.67,4.06,2.01,5.35,1.34,1.29,3.09,1.93,5.27,1.93s4.38-.59,6.31-1.78Z"/>
      <path class="cls-4" d="M1002.97,133c-1.29,0-1.93.65-1.93,1.93v28.52c0,2.58.82,4.53,2.45,5.87,1.63,1.34,4.28,2,7.95,2h6.39c.79,0,1.43.3,1.93.89.49.59.74,1.29.74,2.08l-.15,11.88c0,2.38-1.44,3.86-4.31,4.46-2.18.3-4.38.52-6.61.67-2.23.15-4.46.25-6.69.3-2.23.05-4.48.07-6.76.07-7.13,0-13.02-1.71-17.68-5.12-4.66-3.42-6.98-8.29-6.98-14.63v-36.25c0-1.78-.74-2.67-2.23-2.67h-7.13c-2.38,0-3.57-1.09-3.57-3.27v-13.96c0-1.88,1.09-2.82,3.27-2.82h8.77c1.09,0,1.68-.59,1.78-1.78l2.38-21.99c.2-1.98,1.09-2.97,2.67-2.97h21.84c1.88,0,2.82,1.09,2.82,3.27v21.69c0,1.09.54,1.63,1.63,1.63h13.67c2.18,0,3.27.94,3.27,2.82v14.11c0,2.18-1.24,3.27-3.71,3.27h-13.82Z"/>
      <path class="cls-4" d="M1057.12,167.62c1.34,1.98,3.17,3.47,5.5,4.46,2.33.99,4.93,1.49,7.8,1.49,2.57,0,5.1-.59,7.58-1.78,2.47-1.19,5.35-3.37,8.62-6.54.39-.39.77-.62,1.11-.67.35-.05,1.01.13,2.01.52l13.52,5.5c1.78.69,1.98,1.88.59,3.57-3.57,4.95-7.16,8.82-10.77,11.59-3.62,2.77-7.58,4.71-11.89,5.79s-9.24,1.63-14.78,1.63c-7.92,0-15.06-1.68-21.39-5.05-6.34-3.37-11.34-8.02-15-13.96-3.67-5.94-5.5-12.78-5.5-20.5,0-8.42,1.91-15.8,5.72-22.14,3.81-6.34,8.86-11.27,15.15-14.78,6.29-3.51,13.1-5.27,20.43-5.27,7.82,0,14.76,1.69,20.8,5.05,6.04,3.37,10.82,8.2,14.34,14.48,3.51,6.29,5.27,13.94,5.27,22.95,0,1.29-.13,2.21-.37,2.75-.25.54-1.02.87-2.3.96h-46.2c-.69,0-1.24.2-1.63.59-.4.4-.59,1.04-.59,1.93,0,2.97.67,5.45,2.01,7.43ZM1074.88,142.36c.99,0,1.66-.12,2.01-.37.35-.25.52-.82.52-1.71,0-1.29-.35-2.82-1.04-4.61-.69-1.78-1.78-3.37-3.27-4.75-1.49-1.39-3.47-2.08-5.94-2.08-1.98,0-3.89.47-5.72,1.41-1.83.94-3.27,2.4-4.31,4.38-1.04,1.98-1.56,4.51-1.56,7.58l19.31.15Z"/>
      <path class="cls-4" d="M1197.29,113.91c.59.65.89,1.41.89,2.3v13.97c0,1.88-1.09,2.82-3.27,2.82h-9.21c-1.19,0-1.78.59-1.78,1.78v53.63c0,2.18-.94,3.27-2.82,3.27h-24.22c-1.78,0-2.67-.99-2.67-2.97v-54.23c0-.99-.4-1.49-1.19-1.49h-8.32c-2.18,0-3.27-.94-3.27-2.82v-13.97c0-.89.27-1.66.82-2.3.54-.64,1.46-.96,2.75-.96h7.13c1.39,0,2.08-.89,2.08-2.67v-7.87c0-6.44,2.1-11.54,6.31-15.3,4.21-3.76,9.93-5.65,17.16-5.65h16.79c2.87,0,4.31,1.29,4.31,3.86l.15,12.48c0,.79-.22,1.49-.67,2.08-.45.59-1.11.89-2.01.89h-6.39c-1.69,0-3.22.74-4.61,2.23-1.39,1.49-2.08,3.27-2.08,5.35v2.67c0,1.29.64,1.93,1.93,1.93h9.36c1.29,0,2.23.32,2.82.96Z"/>
      <path class="cls-4" d="M1220.84,187.97c-6.19-3.47-11.04-8.25-14.56-14.34-3.52-6.09-5.27-13.05-5.27-20.87,0-8.32,1.83-15.57,5.5-21.76,3.66-6.19,8.62-10.99,14.86-14.41,6.24-3.42,13.27-5.13,21.1-5.13,8.32,0,15.57,1.78,21.76,5.35,6.19,3.57,11.02,8.45,14.49,14.63,3.47,6.19,5.2,13.3,5.2,21.32s-1.76,14.78-5.27,20.87c-3.52,6.09-8.39,10.87-14.63,14.34-6.24,3.47-13.47,5.2-21.69,5.2s-15.28-1.73-21.47-5.2ZM1248.99,171.85c1.68-1.53,2.92-3.94,3.71-7.21.79-3.27,1.19-7.43,1.19-12.48s-.4-9.51-1.19-12.78c-.79-3.27-2.03-5.67-3.71-7.21-1.69-1.53-3.86-2.3-6.54-2.3s-4.73.77-6.46,2.3c-1.73,1.54-3,3.94-3.79,7.21-.79,3.27-1.19,7.53-1.19,12.78s.4,9.34,1.19,12.55c.79,3.22,2.05,5.6,3.79,7.13,1.73,1.54,3.89,2.3,6.46,2.3s4.85-.77,6.54-2.3Z"/>
      <path class="cls-4" d="M1293.93,190.8c-.55-.59-.82-1.53-.82-2.82v-71.61c0-2.28.94-3.42,2.82-3.42h23.18c1.78,0,2.67.99,2.67,2.97v8.32c0,.69.3,1.11.89,1.26.59.15,1.14-.12,1.63-.82,1.58-2.47,3.61-4.7,6.09-6.69,2.47-1.98,5.1-3.57,7.87-4.75,2.77-1.19,5.3-1.78,7.58-1.78,3.66,0,5.5.99,5.5,2.97v22.58c0,2.08-.99,2.87-2.97,2.38-2.28-.59-4.63-1.01-7.06-1.26-2.43-.25-4.33-.37-5.72-.37-1.59,0-3.15.27-4.68.82-1.54.54-2.92,1.31-4.16,2.3-1.24.99-2.21,2.08-2.9,3.27-.69,1.19-1.04,2.43-1.04,3.71v39.52c0,2.87-1.63,4.31-4.9,4.31h-20.95c-1.49,0-2.5-.3-3.05-.89Z"/>
      <path class="cls-4" d="M1422.96,81.45c1.78,0,2.67,1.04,2.67,3.12v102.81c0,1.59-.4,2.7-1.19,3.34-.79.65-2.03.97-3.71.97h-24.81c-1.59,0-2.65-.3-3.19-.89-.55-.59-.82-1.53-.82-2.82v-103.1c0-2.28.94-3.42,2.82-3.42h28.23Z"/>
      <path class="cls-4" d="M1439.45,187.97v-71.61c0-2.28.94-3.42,2.82-3.42h23.92c1.78,0,2.67.99,2.67,2.97v6.69c0,.59.17.99.52,1.19.35.2.82,0,1.41-.59,2.08-2.28,4.36-4.31,6.83-6.09,2.47-1.78,5.13-3.17,7.95-4.16,2.82-.99,5.77-1.49,8.84-1.49,6.93,0,12.55,2.18,16.86,6.54,4.31,4.36,6.46,10.2,6.46,17.53v51.7c0,2.97-1.49,4.46-4.46,4.46h-21.84c-1.29,0-2.18-.27-2.67-.82-.5-.54-.74-1.51-.74-2.9v-48.43c0-2.28-.72-4.04-2.15-5.27-1.44-1.24-3.34-1.86-5.72-1.86-1.49,0-2.9.27-4.23.82-1.34.55-2.55,1.36-3.64,2.45-1.09,1.09-2.13,2.48-3.12,4.16v47.54c0,2.87-1.63,4.31-4.9,4.31h-20.95c-2.58,0-3.86-1.24-3.86-3.71Z"/>
      <path class="cls-4" d="M1585.49,115.4c4.95,2.62,8.86,5.87,11.74,9.73,2.87,3.86,4.7,7.73,5.5,11.59.69,2.48-.2,3.77-2.67,3.86l-20.35,1.04c-1.39.1-2.23-.59-2.53-2.08-.2-1.29-.55-2.65-1.04-4.09-.5-1.43-1.36-2.67-2.6-3.71-1.24-1.04-3.05-1.56-5.42-1.56s-4.46.74-6.24,2.23c-1.78,1.49-3.17,3.84-4.16,7.06-.99,3.22-1.49,7.5-1.49,12.85s.54,9.83,1.63,13.15c1.09,3.32,2.65,5.7,4.68,7.13,2.03,1.44,4.43,2.15,7.21,2.15,4.06,0,7.06-1.11,8.99-3.34,1.93-2.23,3.84-5.03,5.72-8.39.2-.39.49-.67.89-.82.39-.15,1.09-.12,2.08.07l13.96,2.67c1.39.3,1.83,1.44,1.34,3.42-.4,1.88-1.34,4.23-2.82,7.06-1.49,2.82-3.62,5.57-6.39,8.25-2.77,2.67-6.31,4.93-10.62,6.76-4.31,1.83-9.49,2.75-15.53,2.75-7.92,0-14.98-1.71-21.17-5.12-6.19-3.42-11.07-8.17-14.63-14.26-3.57-6.09-5.35-13.15-5.35-21.17s1.81-15.4,5.42-21.54c3.61-6.14,8.52-10.94,14.71-14.41,6.19-3.47,13.2-5.2,21.02-5.2,7.13,0,13.17,1.31,18.12,3.94Z"/>
      <path class="cls-4" d="M1641.64,187.38c0,1.59-.4,2.7-1.19,3.34-.79.65-2.03.97-3.71.97h-21.1c-2.67,0-4.01-1.24-4.01-3.71l.74-103.1c0-2.28.94-3.42,2.82-3.42h23.77c1.78,0,2.67,1.04,2.67,3.12v102.81Z"/>
      <path class="cls-4" d="M1696.54,170.59c1.93-1.19,3.54-2.62,4.83-4.31v-49.03c0-2.87,1.63-4.31,4.9-4.31h21.25c2.57,0,3.86,1.29,3.86,3.86l-.59,71.61c0,2.18-.94,3.27-2.82,3.27h-23.47c-1.78,0-2.67-.99-2.67-2.97v-6.54c0-.59-.17-.97-.52-1.11-.35-.15-.77.03-1.26.52-3.37,3.96-7.08,6.88-11.14,8.77-4.06,1.88-8.57,2.82-13.52,2.82-4.26,0-8.05-.97-11.37-2.9-3.32-1.93-5.94-4.75-7.87-8.47-1.93-3.71-2.9-8.19-2.9-13.44v-50.96c0-2.97,1.53-4.46,4.61-4.46h21.69c2.28,0,3.42,1.29,3.42,3.86v48.28c0,2.28.67,4.06,2.01,5.35,1.34,1.29,3.09,1.93,5.27,1.93s4.38-.59,6.31-1.78Z"/>
      <path class="cls-4" d="M1786.79,130.85c-2.38-1.43-5.4-2.15-9.06-2.15-2.58,0-4.8.45-6.69,1.34-1.88.89-2.82,2.18-2.82,3.86,0,.69.32,1.39.97,2.08.64.69,2.3,1.29,4.98,1.78l15.75,3.27c9.21,1.88,15.67,5.15,19.39,9.81,3.71,4.66,5.57,9.86,5.57,15.6s-1.59,10.6-4.75,14.56c-3.17,3.96-7.58,6.98-13.22,9.06-5.65,2.08-12.18,3.12-19.61,3.12-9.51,0-17.43-1.58-23.77-4.75-6.34-3.17-10.75-6.98-13.22-11.44-.5-.89-.74-1.73-.74-2.53s.35-1.39,1.04-1.78l12.92-6.54c1.29-.59,2.25-.84,2.9-.74.64.1,1.21.45,1.71,1.04,1.19,1.29,2.5,2.6,3.94,3.94,1.43,1.34,3.37,2.45,5.79,3.34,2.43.89,5.62,1.29,9.58,1.19,2.08-.1,3.96-.32,5.65-.67,1.68-.35,3.02-.92,4.01-1.71.99-.79,1.49-1.78,1.49-2.97,0-.99-.42-1.88-1.26-2.67-.84-.79-2.7-1.43-5.57-1.93l-15.15-2.67c-7.53-1.39-13.42-3.99-17.68-7.8-4.26-3.81-6.44-9.09-6.54-15.82,0-5.15,1.36-9.78,4.09-13.89,2.72-4.11,6.76-7.35,12.11-9.73s11.83-3.57,19.46-3.57c8.12,0,15.03,1.46,20.72,4.38,5.69,2.92,9.63,6.22,11.81,9.88.49.69.89,1.49,1.19,2.38.3.89-.1,1.58-1.19,2.08l-13.67,6.54c-.89.4-1.69.47-2.38.22-.69-.25-1.34-.72-1.93-1.41-1.49-1.68-3.42-3.24-5.79-4.68Z"/>
      <path class="cls-4" d="M1853.34,102.1c0,2.87-1.63,4.31-4.9,4.31h-20.95c-1.49,0-2.5-.32-3.05-.97-.55-.64-.82-1.61-.82-2.9v-17.68c0-2.28.94-3.42,2.82-3.42h24.22c1.78,0,2.67,1.04,2.67,3.12v17.53ZM1853.34,187.38c0,1.59-.4,2.7-1.19,3.34-.79.65-2.03.97-3.71.97h-20.95c-1.49,0-2.5-.3-3.05-.89-.55-.59-.82-1.53-.82-2.82v-71.61c0-2.28.94-3.42,2.82-3.42h24.22c1.78,0,2.67.99,2.67,2.97v71.46Z"/>
      <path class="cls-4" d="M1944.63,114.29c.45.89.47,1.88.07,2.97l-28.97,70.72c-.99,2.48-2.82,3.71-5.5,3.71h-13.97c-2.67,0-4.51-1.24-5.5-3.71l-28.82-70.72c-.4-1.09-.32-2.08.22-2.97.54-.89,1.41-1.34,2.6-1.34h25.11c.89,0,1.68.3,2.38.89.69.59,1.19,1.29,1.49,2.08l13.07,34.32c.59,1.88,1.34,1.83,2.23-.15l12.63-34.17c.4-.79.91-1.49,1.56-2.08.64-.59,1.41-.89,2.3-.89h16.64c1.19,0,2.01.45,2.45,1.34Z"/>
      <path class="cls-4" d="M1977.02,167.62c1.34,1.98,3.17,3.47,5.5,4.46,2.33.99,4.93,1.49,7.8,1.49,2.57,0,5.1-.59,7.58-1.78,2.47-1.19,5.35-3.37,8.62-6.54.39-.39.77-.62,1.11-.67.35-.05,1.01.13,2.01.52l13.52,5.5c1.78.69,1.98,1.88.59,3.57-3.57,4.95-7.16,8.82-10.77,11.59-3.62,2.77-7.58,4.71-11.88,5.79s-9.24,1.63-14.78,1.63c-7.92,0-15.06-1.68-21.39-5.05-6.34-3.37-11.34-8.02-15-13.96-3.67-5.94-5.5-12.78-5.5-20.5,0-8.42,1.91-15.8,5.72-22.14,3.81-6.34,8.86-11.27,15.15-14.78,6.29-3.51,13.1-5.27,20.43-5.27,7.82,0,14.76,1.69,20.8,5.05,6.04,3.37,10.82,8.2,14.34,14.48,3.51,6.29,5.27,13.94,5.27,22.95,0,1.29-.13,2.21-.37,2.75-.25.54-1.02.87-2.3.96h-46.2c-.69,0-1.24.2-1.63.59-.4.4-.59,1.04-.59,1.93,0,2.97.67,5.45,2.01,7.43ZM1994.77,142.36c.99,0,1.66-.12,2.01-.37.35-.25.52-.82.52-1.71,0-1.29-.35-2.82-1.04-4.61-.69-1.78-1.78-3.37-3.27-4.75-1.49-1.39-3.47-2.08-5.94-2.08-1.98,0-3.89.47-5.72,1.41-1.83.94-3.27,2.4-4.31,4.38-1.04,1.98-1.56,4.51-1.56,7.58l19.31.15Z"/>
      <path class="cls-4" d="M2069.2,81.45h80.22c1.78,0,2.67,1.04,2.67,3.12v17.23c0,2.67-1.29,4.01-3.86,4.01h-44.72c-2.28,0-3.42.94-3.42,2.82v12.63c0,2.08.89,3.12,2.67,3.12h26.74c2.08,0,3.12.99,3.12,2.97v18.42c0,.69-.2,1.29-.59,1.78-.4.5-1.09.74-2.08.74h-27.48c-1.59,0-2.38.69-2.38,2.08v14.86c0,1.39.59,2.08,1.78,2.08h48.28c2.18,0,3.27.94,3.27,2.82v18.27c0,.89-.27,1.66-.82,2.3-.55.65-1.46.97-2.75.97h-79.48c-2.67,0-4.01-1.24-4.01-3.71v-103.1c0-2.28.94-3.42,2.82-3.42Z"/>
      <path class="cls-4" d="M2217.77,115.4c4.95,2.62,8.86,5.87,11.74,9.73,2.87,3.86,4.7,7.73,5.5,11.59.69,2.48-.2,3.77-2.67,3.86l-20.35,1.04c-1.39.1-2.23-.59-2.53-2.08-.2-1.29-.55-2.65-1.04-4.09-.5-1.43-1.36-2.67-2.6-3.71-1.24-1.04-3.05-1.56-5.42-1.56s-4.46.74-6.24,2.23c-1.78,1.49-3.17,3.84-4.16,7.06-.99,3.22-1.49,7.5-1.49,12.85s.54,9.83,1.63,13.15c1.09,3.32,2.65,5.7,4.68,7.13,2.03,1.44,4.43,2.15,7.21,2.15,4.06,0,7.06-1.11,8.99-3.34,1.93-2.23,3.84-5.03,5.72-8.39.2-.39.49-.67.89-.82.39-.15,1.09-.12,2.08.07l13.96,2.67c1.39.3,1.83,1.44,1.34,3.42-.4,1.88-1.34,4.23-2.82,7.06-1.49,2.82-3.62,5.57-6.39,8.25-2.77,2.67-6.31,4.93-10.62,6.76-4.31,1.83-9.48,2.75-15.52,2.75-7.93,0-14.98-1.71-21.17-5.12-6.19-3.42-11.07-8.17-14.63-14.26-3.57-6.09-5.35-13.15-5.35-21.17s1.81-15.4,5.42-21.54c3.61-6.14,8.52-10.94,14.71-14.41,6.19-3.47,13.2-5.2,21.02-5.2,7.13,0,13.17,1.31,18.12,3.94Z"/>
      <path class="cls-4" d="M2260.92,187.97c-6.19-3.47-11.04-8.25-14.56-14.34-3.52-6.09-5.27-13.05-5.27-20.87,0-8.32,1.83-15.57,5.5-21.76,3.66-6.19,8.62-10.99,14.86-14.41s13.27-5.13,21.1-5.13c8.32,0,15.57,1.78,21.76,5.35,6.19,3.57,11.02,8.45,14.48,14.63,3.47,6.19,5.2,13.3,5.2,21.32s-1.76,14.78-5.27,20.87c-3.52,6.09-8.39,10.87-14.63,14.34-6.24,3.47-13.47,5.2-21.69,5.2s-15.28-1.73-21.47-5.2ZM2289.08,171.85c1.68-1.53,2.92-3.94,3.71-7.21.79-3.27,1.19-7.43,1.19-12.48s-.4-9.51-1.19-12.78c-.79-3.27-2.03-5.67-3.71-7.21-1.69-1.53-3.86-2.3-6.54-2.3s-4.73.77-6.46,2.3c-1.73,1.54-3,3.94-3.79,7.21-.79,3.27-1.19,7.53-1.19,12.78s.39,9.34,1.19,12.55c.79,3.22,2.05,5.6,3.79,7.13,1.73,1.54,3.89,2.3,6.46,2.3s4.85-.77,6.54-2.3Z"/>
      <path class="cls-4" d="M2333.2,187.97v-71.61c0-2.28.94-3.42,2.82-3.42h23.92c1.78,0,2.67.99,2.67,2.97v6.69c0,.59.17.99.52,1.19.35.2.82,0,1.41-.59,2.08-2.28,4.36-4.31,6.83-6.09,2.47-1.78,5.13-3.17,7.95-4.16,2.82-.99,5.77-1.49,8.84-1.49,6.93,0,12.55,2.18,16.86,6.54,4.31,4.36,6.46,10.2,6.46,17.53v51.7c0,2.97-1.49,4.46-4.46,4.46h-21.84c-1.29,0-2.18-.27-2.67-.82-.5-.54-.74-1.51-.74-2.9v-48.43c0-2.28-.72-4.04-2.15-5.27-1.44-1.24-3.34-1.86-5.72-1.86-1.49,0-2.9.27-4.23.82-1.34.55-2.55,1.36-3.64,2.45-1.09,1.09-2.13,2.48-3.12,4.16v47.54c0,2.87-1.63,4.31-4.9,4.31h-20.95c-2.58,0-3.86-1.24-3.86-3.71Z"/>
      <path class="cls-4" d="M2439.79,187.97c-6.19-3.47-11.04-8.25-14.56-14.34-3.52-6.09-5.27-13.05-5.27-20.87,0-8.32,1.83-15.57,5.5-21.76,3.66-6.19,8.62-10.99,14.86-14.41s13.27-5.13,21.1-5.13c8.32,0,15.57,1.78,21.76,5.35,6.19,3.57,11.02,8.45,14.48,14.63,3.47,6.19,5.2,13.3,5.2,21.32s-1.76,14.78-5.27,20.87c-3.52,6.09-8.39,10.87-14.63,14.34-6.24,3.47-13.47,5.2-21.69,5.2s-15.28-1.73-21.47-5.2ZM2467.94,171.85c1.68-1.53,2.92-3.94,3.71-7.21.79-3.27,1.19-7.43,1.19-12.48s-.4-9.51-1.19-12.78c-.79-3.27-2.03-5.67-3.71-7.21-1.69-1.53-3.86-2.3-6.54-2.3s-4.73.77-6.46,2.3c-1.73,1.54-3,3.94-3.79,7.21-.79,3.27-1.19,7.53-1.19,12.78s.39,9.34,1.19,12.55c.79,3.22,2.05,5.6,3.79,7.13,1.73,1.54,3.89,2.3,6.46,2.3s4.85-.77,6.54-2.3Z"/>
      <path class="cls-4" d="M2512.07,187.97v-71.61c0-2.28.94-3.42,2.82-3.42h23.77c1.78,0,2.67.99,2.67,2.97v6.69c0,.59.17.99.52,1.19.35.2.82,0,1.41-.59,2.18-2.28,4.51-4.31,6.98-6.09,2.47-1.78,5.15-3.19,8.02-4.23,2.87-1.04,5.79-1.56,8.77-1.56,4.95,0,9.29,1.21,13,3.64,3.71,2.43,6.41,5.97,8.1,10.62.2.4.45.57.74.52.3-.05.64-.27,1.04-.67,1.88-2.57,4.26-4.9,7.13-6.98,2.87-2.08,5.94-3.76,9.21-5.05,3.27-1.29,6.39-1.93,9.36-1.93,6.73,0,12.23,2.15,16.49,6.46,4.26,4.31,6.39,10.42,6.39,18.35v50.96c0,2.97-1.54,4.46-4.61,4.46h-21.69c-1.29,0-2.18-.27-2.67-.82-.5-.54-.74-1.51-.74-2.9v-48.43c0-2.28-.72-4.04-2.15-5.27-1.44-1.24-3.29-1.86-5.57-1.86-1.19,0-2.4.27-3.64.82-1.24.55-2.38,1.24-3.42,2.08-1.04.84-1.96,1.81-2.75,2.9-.5.69-.82,1.36-.97,2-.15.65-.22,1.31-.22,2.01v45.01c0,2.97-1.49,4.46-4.46,4.46h-21.69c-1.19,0-2.06-.27-2.6-.82-.55-.54-.82-1.51-.82-2.9v-48.43c0-2.28-.69-4.04-2.08-5.27-1.39-1.24-3.27-1.86-5.65-1.86-2.18,0-4.21.59-6.09,1.78-1.88,1.19-3.52,3.07-4.9,5.65v47.54c0,2.87-1.63,4.31-4.9,4.31h-20.95c-2.58,0-3.86-1.24-3.86-3.71Z"/>
      <path class="cls-4" d="M2679.65,102.1c0,2.87-1.63,4.31-4.9,4.31h-20.95c-1.49,0-2.5-.32-3.05-.97-.55-.64-.82-1.61-.82-2.9v-17.68c0-2.28.94-3.42,2.82-3.42h24.22c1.78,0,2.67,1.04,2.67,3.12v17.53ZM2679.65,187.38c0,1.59-.4,2.7-1.19,3.34-.79.65-2.03.97-3.71.97h-20.95c-1.49,0-2.5-.3-3.05-.89-.55-.59-.82-1.53-.82-2.82v-71.61c0-2.28.94-3.42,2.82-3.42h24.22c1.78,0,2.67.99,2.67,2.97v71.46Z"/>
      <path class="cls-4" d="M2721.47,167.62c1.34,1.98,3.17,3.47,5.5,4.46,2.33.99,4.93,1.49,7.8,1.49,2.57,0,5.1-.59,7.58-1.78,2.47-1.19,5.35-3.37,8.62-6.54.4-.39.77-.62,1.11-.67.35-.05,1.01.13,2.01.52l13.52,5.5c1.78.69,1.98,1.88.59,3.57-3.57,4.95-7.16,8.82-10.77,11.59-3.62,2.77-7.58,4.71-11.89,5.79-4.31,1.09-9.24,1.63-14.78,1.63-7.92,0-15.06-1.68-21.39-5.05-6.34-3.37-11.34-8.02-15-13.96-3.67-5.94-5.5-12.78-5.5-20.5,0-8.42,1.91-15.8,5.72-22.14,3.81-6.34,8.86-11.27,15.15-14.78,6.29-3.51,13.1-5.27,20.43-5.27,7.82,0,14.76,1.69,20.8,5.05,6.04,3.37,10.82,8.2,14.34,14.48,3.51,6.29,5.27,13.94,5.27,22.95,0,1.29-.12,2.21-.37,2.75-.25.54-1.02.87-2.3.96h-46.2c-.69,0-1.24.2-1.63.59-.4.4-.59,1.04-.59,1.93,0,2.97.67,5.45,2.01,7.43ZM2739.22,142.36c.99,0,1.66-.12,2.01-.37.35-.25.52-.82.52-1.71,0-1.29-.35-2.82-1.04-4.61-.69-1.78-1.78-3.37-3.27-4.75-1.49-1.39-3.47-2.08-5.94-2.08-1.98,0-3.89.47-5.72,1.41-1.83.94-3.27,2.4-4.31,4.38-1.04,1.98-1.56,4.51-1.56,7.58l19.31.15Z"/>
      <path class="cls-4" d="M2823.01,130.85c-2.38-1.43-5.4-2.15-9.06-2.15-2.58,0-4.8.45-6.69,1.34-1.88.89-2.82,2.18-2.82,3.86,0,.69.32,1.39.97,2.08.64.69,2.3,1.29,4.98,1.78l15.75,3.27c9.21,1.88,15.67,5.15,19.39,9.81,3.71,4.66,5.57,9.86,5.57,15.6s-1.59,10.6-4.75,14.56c-3.17,3.96-7.58,6.98-13.22,9.06-5.65,2.08-12.18,3.12-19.61,3.12-9.51,0-17.43-1.58-23.77-4.75-6.34-3.17-10.75-6.98-13.22-11.44-.5-.89-.74-1.73-.74-2.53s.35-1.39,1.04-1.78l12.92-6.54c1.29-.59,2.25-.84,2.9-.74.64.1,1.21.45,1.71,1.04,1.19,1.29,2.5,2.6,3.94,3.94,1.43,1.34,3.37,2.45,5.79,3.34,2.43.89,5.62,1.29,9.58,1.19,2.08-.1,3.96-.32,5.65-.67,1.68-.35,3.02-.92,4.01-1.71.99-.79,1.49-1.78,1.49-2.97,0-.99-.42-1.88-1.26-2.67-.84-.79-2.7-1.43-5.57-1.93l-15.15-2.67c-7.53-1.39-13.42-3.99-17.68-7.8-4.26-3.81-6.44-9.09-6.54-15.82,0-5.15,1.36-9.78,4.09-13.89,2.72-4.11,6.76-7.35,12.11-9.73s11.83-3.57,19.46-3.57c8.12,0,15.03,1.46,20.72,4.38,5.69,2.92,9.63,6.22,11.81,9.88.49.69.89,1.49,1.19,2.38.3.89-.1,1.58-1.19,2.08l-13.67,6.54c-.89.4-1.69.47-2.38.22-.69-.25-1.34-.72-1.93-1.41-1.49-1.68-3.42-3.24-5.79-4.68Z"/>
      <path class="cls-4" d="M508.34,328.34c-3.52,1.49-7.6,2.23-12.26,2.23-7.43,0-13.25-2.08-17.46-6.24-4.21-4.16-6.31-9.31-6.31-15.45s1.86-10.94,5.57-15.3c3.71-4.36,8.99-7.75,15.82-10.18,6.83-2.43,14.91-3.64,24.22-3.64h1.04c.39,0,.87-.12,1.41-.37.54-.25.82-.82.82-1.71v-2.53c0-2.77-.72-4.9-2.15-6.39-1.44-1.49-3.64-2.23-6.61-2.23-2.08,0-4.21.47-6.39,1.41-2.18.94-3.91,2.8-5.2,5.57-.4.79-.82,1.31-1.26,1.56-.45.25-1.36.27-2.75.07l-19.46-3.86c-.69-.2-1.21-.57-1.56-1.11-.35-.54-.17-1.76.52-3.64,2.28-6.34,6.66-10.87,13.15-13.59,6.49-2.72,14.58-4.09,24.29-4.09s16.39,1.04,21.54,3.12c5.15,2.08,8.79,4.95,10.92,8.62,2.13,3.67,3.19,7.93,3.19,12.78v51.7c0,1.49-.22,2.53-.67,3.12-.45.59-1.36.89-2.75.89h-20.35c-1.29,0-2.21-.52-2.75-1.56-.55-1.04-.92-2.25-1.11-3.64l-.15-1.04c-.3-1.98-1.63-1.98-4.01,0-2.67,2.18-5.77,4.01-9.29,5.5ZM518.96,293.13h-.59c-1.19,0-2.75.22-4.68.67-1.93.45-3.84,1.14-5.72,2.08-1.88.94-3.49,2.15-4.83,3.64-1.34,1.49-2.01,3.27-2.01,5.35s.74,3.76,2.23,5.05c1.49,1.29,3.57,1.93,6.24,1.93,1.98,0,3.64-.3,4.98-.89,1.34-.59,2.4-1.24,3.19-1.93.89-.79,1.68-1.61,2.38-2.45.69-.84,1.04-1.81,1.04-2.9v-7.87c0-1.78-.74-2.67-2.23-2.67Z"/>
      <path class="cls-4" d="M562.19,325.37v-71.61c0-2.28.94-3.42,2.82-3.42h23.92c1.78,0,2.67.99,2.67,2.97v6.69c0,.59.17.99.52,1.19.35.2.82,0,1.41-.59,2.08-2.28,4.36-4.31,6.83-6.09,2.47-1.78,5.13-3.17,7.95-4.16,2.82-.99,5.77-1.49,8.84-1.49,6.93,0,12.55,2.18,16.86,6.54,4.31,4.36,6.46,10.2,6.46,17.53v51.7c0,2.97-1.49,4.46-4.46,4.46h-21.84c-1.29,0-2.18-.27-2.67-.82-.5-.54-.74-1.51-.74-2.9v-48.43c0-2.28-.72-4.04-2.15-5.27-1.44-1.24-3.34-1.86-5.72-1.86-1.49,0-2.9.27-4.23.82-1.34.55-2.55,1.36-3.64,2.45-1.09,1.09-2.13,2.48-3.12,4.16v47.54c0,2.87-1.63,4.31-4.9,4.31h-20.95c-2.58,0-3.86-1.24-3.86-3.71Z"/>
      <path class="cls-4" d="M703.1,328.34c-.74-.49-1.11-1.39-1.11-2.67v-2.82c0-.69-.25-1.09-.74-1.19-.5-.1-.99.1-1.49.59-1.88,1.78-3.84,3.29-5.87,4.53-2.03,1.24-4.26,2.18-6.69,2.82-2.43.64-5.18.97-8.25.97-5.84,0-10.99-1.51-15.45-4.53-4.46-3.02-7.95-7.55-10.47-13.59-2.53-6.04-3.79-13.52-3.79-22.43,0-8.32,1.46-15.55,4.38-21.69,2.92-6.14,6.76-10.92,11.51-14.34,4.75-3.42,9.85-5.13,15.3-5.13,3.37,0,6.51.55,9.43,1.63,2.92,1.09,5.92,3.12,8.99,6.09.79.59,1.46.84,2.01.74.54-.1.82-.74.82-1.93v-33.43c0-2.08.89-3.12,2.67-3.12h24.07c1.88,0,2.82,1.14,2.82,3.42v103.1c0,1.29-.27,2.23-.82,2.82-.55.59-1.61.89-3.19.89h-21.54c-.99,0-1.86-.25-2.6-.74ZM696.86,268.69c-1.54-.94-3.44-1.41-5.72-1.41s-4.33.69-6.17,2.08c-1.83,1.39-3.25,3.71-4.23,6.98-.99,3.27-1.49,7.78-1.49,13.52s.47,10.15,1.41,13.52c.94,3.37,2.3,5.77,4.09,7.21,1.78,1.44,3.91,2.15,6.39,2.15,1.98,0,3.74-.42,5.27-1.26,1.53-.84,2.77-2.01,3.71-3.49.94-1.49,1.41-3.17,1.41-5.05v-30.01c-1.59-1.88-3.15-3.29-4.68-4.23Z"/>
      <path class="cls-4" d="M833.76,242.92c-2.67-1.68-6.93-2.53-12.78-2.53s-9.46.79-11.74,2.38c-2.28,1.59-3.42,3.32-3.42,5.2,0,.89.27,1.81.82,2.75.54.94,1.51,1.83,2.9,2.67,1.39.84,3.32,1.56,5.79,2.15l24.66,6.39c9.31,2.28,16.17,6.34,20.58,12.18,4.41,5.85,6.61,12.58,6.61,20.21s-1.93,13.72-5.79,19.16c-3.86,5.45-9.34,9.66-16.42,12.63-7.08,2.97-15.52,4.46-25.33,4.46-7.23,0-14.09-.82-20.58-2.45-6.49-1.63-12.16-3.94-17.01-6.91-4.85-2.97-8.47-6.39-10.85-10.25-.59-1.09-.84-1.98-.74-2.67.1-.69.64-1.43,1.63-2.23l15.3-10.55c1.39-.89,2.53-1.26,3.42-1.11s1.63.62,2.23,1.41c2.18,2.77,4.36,5.05,6.54,6.83,2.18,1.78,4.68,3.07,7.5,3.86,2.82.79,6.17,1.19,10.03,1.19,5.45,0,9.81-.74,13.07-2.23,3.27-1.49,4.9-3.61,4.9-6.39,0-1.19-.35-2.3-1.04-3.34-.69-1.04-1.71-1.95-3.05-2.75-1.34-.79-3.1-1.43-5.27-1.93l-22.58-5.5c-5.94-1.49-11.09-3.84-15.45-7.06-4.36-3.22-7.73-7.06-10.1-11.51-2.38-4.46-3.57-9.26-3.57-14.41,0-6.44,1.86-12.33,5.57-17.68,3.71-5.35,9.01-9.61,15.9-12.78,6.88-3.17,14.98-4.75,24.29-4.75,5.94,0,11.61.67,17.01,2.01,5.4,1.34,10.23,3.19,14.49,5.57,4.26,2.38,7.53,5.2,9.81,8.47.49.69.87,1.41,1.11,2.15.25.74-.13,1.51-1.11,2.3l-16.19,11.74c-.69.5-1.34.67-1.93.52-.59-.15-1.44-.72-2.53-1.71-1.78-1.98-4.01-3.81-6.69-5.5Z"/>
      <path class="cls-4" d="M919.85,307.99c1.93-1.19,3.54-2.62,4.83-4.31v-49.03c0-2.87,1.63-4.31,4.9-4.31h21.24c2.57,0,3.86,1.29,3.86,3.86l-.59,71.61c0,2.18-.94,3.27-2.82,3.27h-23.47c-1.78,0-2.67-.99-2.67-2.97v-6.54c0-.59-.17-.97-.52-1.11-.35-.15-.77.03-1.26.52-3.37,3.96-7.08,6.88-11.14,8.77-4.06,1.88-8.57,2.82-13.52,2.82-4.26,0-8.05-.97-11.37-2.9-3.32-1.93-5.94-4.75-7.87-8.47-1.93-3.71-2.9-8.19-2.9-13.44v-50.96c0-2.97,1.53-4.46,4.61-4.46h21.69c2.28,0,3.42,1.29,3.42,3.86v48.28c0,2.28.67,4.06,2.01,5.35,1.34,1.29,3.09,1.93,5.27,1.93s4.38-.59,6.31-1.78Z"/>
      <path class="cls-4" d="M1010.1,268.25c-2.38-1.43-5.4-2.15-9.06-2.15-2.58,0-4.81.45-6.69,1.34-1.88.89-2.82,2.18-2.82,3.86,0,.69.32,1.39.97,2.08.64.69,2.3,1.29,4.98,1.78l15.75,3.27c9.21,1.88,15.67,5.15,19.39,9.81,3.71,4.66,5.57,9.86,5.57,15.6s-1.59,10.6-4.75,14.56c-3.17,3.96-7.58,6.98-13.22,9.06-5.65,2.08-12.18,3.12-19.61,3.12-9.51,0-17.43-1.58-23.77-4.75-6.34-3.17-10.75-6.98-13.22-11.44-.5-.89-.74-1.73-.74-2.53s.35-1.39,1.04-1.78l12.93-6.54c1.29-.59,2.25-.84,2.9-.74.64.1,1.21.45,1.71,1.04,1.19,1.29,2.5,2.6,3.94,3.94,1.43,1.34,3.37,2.45,5.79,3.34,2.43.89,5.62,1.29,9.58,1.19,2.08-.1,3.96-.32,5.65-.67,1.68-.35,3.02-.92,4.01-1.71.99-.79,1.49-1.78,1.49-2.97,0-.99-.42-1.88-1.26-2.67-.84-.79-2.7-1.43-5.57-1.93l-15.15-2.67c-7.53-1.39-13.42-3.99-17.68-7.8-4.26-3.81-6.44-9.09-6.54-15.82,0-5.15,1.36-9.78,4.09-13.89,2.72-4.11,6.76-7.35,12.11-9.73,5.35-2.38,11.83-3.57,19.46-3.57,8.12,0,15.03,1.46,20.72,4.38,5.69,2.92,9.63,6.22,11.81,9.88.49.69.89,1.49,1.19,2.38s-.1,1.58-1.19,2.08l-13.67,6.54c-.89.4-1.69.47-2.38.22-.69-.25-1.34-.72-1.93-1.41-1.49-1.68-3.42-3.24-5.79-4.68Z"/>
      <path class="cls-4" d="M1085.13,270.4c-1.29,0-1.93.65-1.93,1.93v28.52c0,2.58.82,4.53,2.45,5.87,1.63,1.34,4.28,2,7.95,2h6.39c.79,0,1.43.3,1.93.89.49.59.74,1.29.74,2.08l-.15,11.88c0,2.38-1.44,3.86-4.31,4.46-2.18.3-4.38.52-6.61.67-2.23.15-4.46.25-6.69.3-2.23.05-4.48.07-6.76.07-7.13,0-13.02-1.71-17.68-5.12-4.66-3.42-6.98-8.29-6.98-14.63v-36.25c0-1.78-.74-2.67-2.23-2.67h-7.13c-2.38,0-3.57-1.09-3.57-3.27v-13.96c0-1.88,1.09-2.82,3.27-2.82h8.77c1.09,0,1.68-.59,1.78-1.78l2.38-21.99c.2-1.98,1.09-2.97,2.67-2.97h21.84c1.88,0,2.82,1.09,2.82,3.27v21.69c0,1.09.54,1.63,1.63,1.63h13.67c2.18,0,3.27.94,3.27,2.82v14.11c0,2.18-1.24,3.27-3.71,3.27h-13.82Z"/>
      <path class="cls-4" d="M1143.88,328.34c-3.52,1.49-7.6,2.23-12.26,2.23-7.43,0-13.25-2.08-17.46-6.24-4.21-4.16-6.31-9.31-6.31-15.45s1.86-10.94,5.57-15.3c3.71-4.36,8.99-7.75,15.82-10.18,6.83-2.43,14.91-3.64,24.22-3.64h1.04c.39,0,.87-.12,1.41-.37.54-.25.82-.82.82-1.71v-2.53c0-2.77-.72-4.9-2.15-6.39-1.44-1.49-3.64-2.23-6.61-2.23-2.08,0-4.21.47-6.39,1.41-2.18.94-3.91,2.8-5.2,5.57-.4.79-.82,1.31-1.26,1.56-.45.25-1.36.27-2.75.07l-19.46-3.86c-.69-.2-1.21-.57-1.56-1.11-.35-.54-.17-1.76.52-3.64,2.28-6.34,6.66-10.87,13.15-13.59,6.49-2.72,14.58-4.09,24.29-4.09s16.39,1.04,21.54,3.12c5.15,2.08,8.79,4.95,10.92,8.62,2.13,3.67,3.19,7.93,3.19,12.78v51.7c0,1.49-.22,2.53-.67,3.12-.45.59-1.36.89-2.75.89h-20.35c-1.29,0-2.21-.52-2.75-1.56-.54-1.04-.92-2.25-1.11-3.64l-.15-1.04c-.3-1.98-1.63-1.98-4.01,0-2.67,2.18-5.77,4.01-9.29,5.5ZM1154.51,293.13h-.59c-1.19,0-2.75.22-4.68.67-1.93.45-3.84,1.14-5.72,2.08-1.88.94-3.49,2.15-4.83,3.64-1.34,1.49-2.01,3.27-2.01,5.35s.74,3.76,2.23,5.05c1.49,1.29,3.57,1.93,6.24,1.93,1.98,0,3.64-.3,4.98-.89,1.34-.59,2.4-1.24,3.19-1.93.89-.79,1.68-1.61,2.38-2.45.69-.84,1.04-1.81,1.04-2.9v-7.87c0-1.78-.74-2.67-2.23-2.67Z"/>
      <path class="cls-4" d="M1227.45,239.5c0,2.87-1.63,4.31-4.9,4.31h-20.95c-1.49,0-2.5-.32-3.05-.97-.55-.64-.82-1.61-.82-2.9v-17.68c0-2.28.94-3.42,2.82-3.42h24.22c1.78,0,2.67,1.04,2.67,3.12v17.53ZM1227.45,324.77c0,1.59-.4,2.7-1.19,3.34-.79.65-2.03.97-3.71.97h-20.95c-1.49,0-2.5-.3-3.05-.89-.55-.59-.82-1.53-.82-2.82v-71.61c0-2.28.94-3.42,2.82-3.42h24.22c1.78,0,2.67.99,2.67,2.97v71.46Z"/>
      <path class="cls-4" d="M1239.63,325.37v-71.61c0-2.28.94-3.42,2.82-3.42h23.92c1.78,0,2.67.99,2.67,2.97v6.69c0,.59.17.99.52,1.19.35.2.82,0,1.41-.59,2.08-2.28,4.36-4.31,6.83-6.09,2.47-1.78,5.13-3.17,7.95-4.16,2.82-.99,5.77-1.49,8.84-1.49,6.93,0,12.55,2.18,16.86,6.54,4.31,4.36,6.46,10.2,6.46,17.53v51.7c0,2.97-1.49,4.46-4.46,4.46h-21.84c-1.29,0-2.18-.27-2.67-.82-.5-.54-.74-1.51-.74-2.9v-48.43c0-2.28-.72-4.04-2.15-5.27-1.44-1.24-3.34-1.86-5.72-1.86-1.49,0-2.9.27-4.23.82-1.34.55-2.55,1.36-3.64,2.45-1.09,1.09-2.13,2.48-3.12,4.16v47.54c0,2.87-1.63,4.31-4.9,4.31h-20.95c-2.58,0-3.86-1.24-3.86-3.71Z"/>
      <path class="cls-4" d="M1360.64,328.34c-3.52,1.49-7.6,2.23-12.26,2.23-7.43,0-13.25-2.08-17.46-6.24-4.21-4.16-6.31-9.31-6.31-15.45s1.86-10.94,5.57-15.3c3.71-4.36,8.99-7.75,15.82-10.18,6.83-2.43,14.91-3.64,24.22-3.64h1.04c.39,0,.87-.12,1.41-.37.54-.25.82-.82.82-1.71v-2.53c0-2.77-.72-4.9-2.15-6.39-1.44-1.49-3.64-2.23-6.61-2.23-2.08,0-4.21.47-6.39,1.41-2.18.94-3.91,2.8-5.2,5.57-.4.79-.82,1.31-1.26,1.56-.45.25-1.36.27-2.75.07l-19.46-3.86c-.69-.2-1.21-.57-1.56-1.11-.35-.54-.17-1.76.52-3.64,2.28-6.34,6.66-10.87,13.15-13.59,6.49-2.72,14.58-4.09,24.29-4.09s16.39,1.04,21.54,3.12c5.15,2.08,8.79,4.95,10.92,8.62,2.13,3.67,3.19,7.93,3.19,12.78v51.7c0,1.49-.22,2.53-.67,3.12-.45.59-1.36.89-2.75.89h-20.35c-1.29,0-2.21-.52-2.75-1.56-.54-1.04-.92-2.25-1.11-3.64l-.15-1.04c-.3-1.98-1.63-1.98-4.01,0-2.67,2.18-5.77,4.01-9.29,5.5ZM1371.26,293.13h-.59c-1.19,0-2.75.22-4.68.67-1.93.45-3.84,1.14-5.72,2.08-1.88.94-3.49,2.15-4.83,3.64-1.34,1.49-2.01,3.27-2.01,5.35s.74,3.76,2.23,5.05c1.49,1.29,3.57,1.93,6.24,1.93,1.98,0,3.64-.3,4.98-.89,1.34-.59,2.4-1.24,3.19-1.93.89-.79,1.68-1.61,2.38-2.45.69-.84,1.04-1.81,1.04-2.9v-7.87c0-1.78-.74-2.67-2.23-2.67Z"/>
      <path class="cls-4" d="M1418.5,329.08c-1.59,0-2.65-.3-3.19-.89-.55-.59-.82-1.53-.82-2.82v-103.1c0-2.28.94-3.42,2.82-3.42h24.22c1.78,0,2.67,1.04,2.67,3.12v33.43c0,1.19.3,1.83.89,1.93.59.1,1.24-.15,1.93-.74,2.08-1.98,4.13-3.51,6.17-4.61,2.03-1.09,4.11-1.88,6.24-2.38,2.13-.49,4.28-.74,6.46-.74,6.44,0,11.93,1.63,16.49,4.9,4.55,3.27,8.05,7.9,10.47,13.89,2.43,5.99,3.64,13.15,3.64,21.47,0,12.58-2.9,22.63-8.69,30.16-5.79,7.53-14.14,11.29-25.03,11.29-3.07,0-6.02-.5-8.84-1.49s-5.42-2.43-7.8-4.31c-2.38-1.88-4.56-4.06-6.54-6.54-.4-.5-.77-.69-1.11-.59-.35.1-.62.45-.82,1.04l-2.38,6.98c-.69,2.28-1.98,3.42-3.86,3.42h-12.92ZM1444.2,301.6c0,2.48.45,4.58,1.34,6.31.89,1.73,2.13,3.04,3.71,3.94,1.58.89,3.42,1.34,5.5,1.34,2.57,0,4.73-.74,6.46-2.23,1.73-1.49,3.05-3.96,3.94-7.43.89-3.47,1.34-8.07,1.34-13.82,0-8.62-.97-14.56-2.9-17.83s-4.73-4.9-8.39-4.9c-2.28,0-4.31.52-6.09,1.56-1.78,1.04-3.42,2.5-4.9,4.38v28.67Z"/>
      <path class="cls-4" d="M1535.87,324.77c0,1.59-.4,2.7-1.19,3.34-.79.65-2.03.97-3.71.97h-21.1c-2.67,0-4.01-1.24-4.01-3.71l.74-103.1c0-2.28.94-3.42,2.82-3.42h23.77c1.78,0,2.67,1.04,2.67,3.12v102.81Z"/>
      <path class="cls-4" d="M1577.83,305.02c1.34,1.98,3.17,3.47,5.5,4.46,2.33.99,4.93,1.49,7.8,1.49,2.57,0,5.1-.59,7.58-1.78,2.47-1.19,5.35-3.37,8.62-6.54.39-.39.77-.62,1.11-.67.35-.05,1.01.13,2.01.52l13.52,5.5c1.78.69,1.98,1.88.59,3.57-3.57,4.95-7.16,8.82-10.77,11.59-3.62,2.77-7.58,4.71-11.88,5.79s-9.24,1.63-14.78,1.63c-7.92,0-15.06-1.68-21.39-5.05-6.34-3.37-11.34-8.02-15-13.96-3.67-5.94-5.5-12.78-5.5-20.5,0-8.42,1.91-15.8,5.72-22.14,3.81-6.34,8.86-11.27,15.15-14.78,6.29-3.51,13.1-5.27,20.43-5.27,7.82,0,14.76,1.69,20.8,5.05,6.04,3.37,10.82,8.2,14.34,14.48,3.51,6.29,5.27,13.94,5.27,22.95,0,1.29-.13,2.21-.37,2.75-.25.54-1.02.87-2.3.96h-46.2c-.69,0-1.24.2-1.63.59-.4.4-.59,1.04-.59,1.93,0,2.97.67,5.45,2.01,7.43ZM1595.59,279.76c.99,0,1.66-.12,2.01-.37.35-.25.52-.82.52-1.71,0-1.29-.35-2.82-1.04-4.61-.69-1.78-1.78-3.37-3.27-4.75-1.49-1.39-3.47-2.08-5.94-2.08-1.98,0-3.89.47-5.72,1.41-1.83.94-3.27,2.4-4.31,4.38-1.04,1.98-1.56,4.51-1.56,7.58l19.31.15Z"/>
      <path class="cls-4" d="M1670.02,218.85h28.23c1.78,0,2.67,1.04,2.67,3.12v80.67c0,1.39.59,2.08,1.78,2.08h44.72c2.28,0,3.42.94,3.42,2.82v18.27c0,.89-.3,1.66-.89,2.3-.59.65-1.54.97-2.82.97h-75.92c-1.58,0-2.65-.3-3.19-.89-.55-.59-.82-1.53-.82-2.82v-103.1c0-2.28.94-3.42,2.82-3.42Z"/>
      <path class="cls-4" d="M1790.8,239.5c0,2.87-1.63,4.31-4.9,4.31h-20.95c-1.49,0-2.5-.32-3.05-.97-.55-.64-.82-1.61-.82-2.9v-17.68c0-2.28.94-3.42,2.82-3.42h24.22c1.78,0,2.67,1.04,2.67,3.12v17.53ZM1790.8,324.77c0,1.59-.4,2.7-1.19,3.34-.79.65-2.03.97-3.71.97h-20.95c-1.49,0-2.5-.3-3.05-.89-.55-.59-.82-1.53-.82-2.82v-71.61c0-2.28.94-3.42,2.82-3.42h24.22c1.78,0,2.67.99,2.67,2.97v71.46Z"/>
      <path class="cls-4" d="M1882.09,251.68c.45.89.47,1.88.07,2.97l-28.97,70.72c-.99,2.48-2.82,3.71-5.5,3.71h-13.97c-2.67,0-4.51-1.24-5.5-3.71l-28.82-70.72c-.4-1.09-.32-2.08.22-2.97.54-.89,1.41-1.34,2.6-1.34h25.11c.89,0,1.68.3,2.38.89.69.59,1.19,1.29,1.49,2.08l13.07,34.32c.59,1.88,1.34,1.83,2.23-.15l12.63-34.17c.4-.79.91-1.49,1.56-2.08.64-.59,1.41-.89,2.3-.89h16.64c1.19,0,2.01.45,2.45,1.34Z"/>
      <path class="cls-4" d="M1914.48,305.02c1.34,1.98,3.17,3.47,5.5,4.46,2.33.99,4.93,1.49,7.8,1.49,2.57,0,5.1-.59,7.58-1.78,2.47-1.19,5.35-3.37,8.62-6.54.39-.39.77-.62,1.11-.67.35-.05,1.01.13,2.01.52l13.52,5.5c1.78.69,1.98,1.88.59,3.57-3.57,4.95-7.16,8.82-10.77,11.59-3.62,2.77-7.58,4.71-11.88,5.79s-9.24,1.63-14.78,1.63c-7.92,0-15.06-1.68-21.39-5.05-6.34-3.37-11.34-8.02-15-13.96-3.67-5.94-5.5-12.78-5.5-20.5,0-8.42,1.91-15.8,5.72-22.14,3.81-6.34,8.86-11.27,15.15-14.78,6.29-3.51,13.1-5.27,20.43-5.27,7.82,0,14.76,1.69,20.8,5.05,6.04,3.37,10.82,8.2,14.34,14.48,3.51,6.29,5.27,13.94,5.27,22.95,0,1.29-.13,2.21-.37,2.75-.25.54-1.02.87-2.3.96h-46.2c-.69,0-1.24.2-1.63.59-.4.4-.59,1.04-.59,1.93,0,2.97.67,5.45,2.01,7.43ZM1932.23,279.76c.99,0,1.66-.12,2.01-.37.35-.25.52-.82.52-1.71,0-1.29-.35-2.82-1.04-4.61-.69-1.78-1.78-3.37-3.27-4.75-1.49-1.39-3.47-2.08-5.94-2.08-1.98,0-3.89.47-5.72,1.41-1.83.94-3.27,2.4-4.31,4.38-1.04,1.98-1.56,4.51-1.56,7.58l19.31.15Z"/>
      <path class="cls-4" d="M2002.35,324.77c0,1.59-.4,2.7-1.19,3.34-.79.65-2.03.97-3.71.97h-21.1c-2.67,0-4.01-1.24-4.01-3.71l.74-103.1c0-2.28.94-3.42,2.82-3.42h23.77c1.78,0,2.67,1.04,2.67,3.12v102.81Z"/>
      <path class="cls-4" d="M2044.39,239.5c0,2.87-1.63,4.31-4.9,4.31h-20.95c-1.49,0-2.5-.32-3.05-.97-.55-.64-.82-1.61-.82-2.9v-17.68c0-2.28.94-3.42,2.82-3.42h24.22c1.78,0,2.67,1.04,2.67,3.12v17.53ZM2044.39,324.77c0,1.59-.4,2.7-1.19,3.34-.79.65-2.03.97-3.71.97h-20.95c-1.49,0-2.5-.3-3.05-.89-.55-.59-.82-1.53-.82-2.82v-71.61c0-2.28.94-3.42,2.82-3.42h24.22c1.78,0,2.67.99,2.67,2.97v71.46Z"/>
      <path class="cls-4" d="M2056.72,325.37v-103.1c0-2.28.94-3.42,2.82-3.42h23.77c1.78,0,2.67,1.04,2.67,3.12v36.99c0,.59.17.97.52,1.11.35.15.82-.02,1.41-.52,2.87-2.77,5.62-4.93,8.25-6.46,2.62-1.53,5.22-2.62,7.8-3.27,2.57-.64,5.15-.97,7.73-.97,7.33,0,13.02,2.11,17.08,6.31,4.06,4.21,6.09,10.28,6.09,18.2v51.25c0,2.97-1.49,4.46-4.46,4.46h-21.84c-1.29,0-2.18-.27-2.67-.82-.5-.54-.74-1.51-.74-2.9v-48.43c0-2.28-.69-4.04-2.08-5.27-1.39-1.24-3.27-1.86-5.65-1.86-1.49,0-2.9.27-4.23.82-1.34.55-2.55,1.36-3.64,2.45-1.09,1.09-2.13,2.48-3.12,4.16v47.54c0,2.87-1.63,4.31-4.9,4.31h-20.95c-2.58,0-3.86-1.24-3.86-3.71Z"/>
      <path class="cls-4" d="M2163.32,325.37c-6.19-3.47-11.04-8.25-14.56-14.34-3.52-6.09-5.27-13.05-5.27-20.87,0-8.32,1.83-15.57,5.5-21.76,3.66-6.19,8.62-10.99,14.86-14.41,6.24-3.42,13.27-5.13,21.1-5.13,8.32,0,15.57,1.78,21.76,5.35,6.19,3.57,11.02,8.45,14.48,14.63,3.47,6.19,5.2,13.3,5.2,21.32s-1.76,14.78-5.27,20.87c-3.52,6.09-8.39,10.87-14.63,14.34-6.24,3.47-13.47,5.2-21.69,5.2s-15.28-1.73-21.47-5.2ZM2191.47,309.25c1.68-1.53,2.92-3.94,3.71-7.21.79-3.27,1.19-7.43,1.19-12.48s-.4-9.51-1.19-12.78c-.79-3.27-2.03-5.67-3.71-7.21-1.69-1.53-3.86-2.3-6.54-2.3s-4.73.77-6.46,2.3c-1.73,1.54-3,3.94-3.79,7.21-.79,3.27-1.19,7.53-1.19,12.78s.39,9.34,1.19,12.55c.79,3.22,2.05,5.6,3.79,7.13,1.73,1.54,3.89,2.3,6.46,2.3s4.85-.77,6.54-2.3Z"/>
      <path class="cls-4" d="M2252.45,325.37c-6.19-3.47-11.04-8.25-14.56-14.34-3.52-6.09-5.27-13.05-5.27-20.87,0-8.32,1.83-15.57,5.5-21.76,3.66-6.19,8.62-10.99,14.86-14.41,6.24-3.42,13.27-5.13,21.1-5.13,8.32,0,15.57,1.78,21.76,5.35,6.19,3.57,11.02,8.45,14.48,14.63,3.47,6.19,5.2,13.3,5.2,21.32s-1.76,14.78-5.27,20.87c-3.52,6.09-8.39,10.87-14.63,14.34-6.24,3.47-13.47,5.2-21.69,5.2s-15.28-1.73-21.47-5.2ZM2280.61,309.25c1.68-1.53,2.92-3.94,3.71-7.21.79-3.27,1.19-7.43,1.19-12.48s-.4-9.51-1.19-12.78c-.79-3.27-2.03-5.67-3.71-7.21-1.69-1.53-3.86-2.3-6.54-2.3s-4.73.77-6.46,2.3c-1.73,1.54-3,3.94-3.79,7.21-.79,3.27-1.19,7.53-1.19,12.78s.39,9.34,1.19,12.55c.79,3.22,2.05,5.6,3.79,7.13,1.73,1.54,3.89,2.3,6.46,2.3s4.85-.77,6.54-2.3Z"/>
      <path class="cls-4" d="M2375.91,328.34c-.74-.49-1.11-1.39-1.11-2.67v-2.82c0-.69-.25-1.09-.74-1.19-.5-.1-.99.1-1.49.59-1.88,1.78-3.84,3.29-5.87,4.53-2.03,1.24-4.26,2.18-6.69,2.82-2.43.64-5.18.97-8.25.97-5.84,0-10.99-1.51-15.45-4.53-4.46-3.02-7.95-7.55-10.47-13.59-2.53-6.04-3.79-13.52-3.79-22.43,0-8.32,1.46-15.55,4.38-21.69,2.92-6.14,6.76-10.92,11.51-14.34s9.85-5.13,15.3-5.13c3.37,0,6.51.55,9.43,1.63,2.92,1.09,5.92,3.12,8.99,6.09.79.59,1.46.84,2.01.74.54-.1.82-.74.82-1.93v-33.43c0-2.08.89-3.12,2.67-3.12h24.07c1.88,0,2.82,1.14,2.82,3.42v103.1c0,1.29-.27,2.23-.82,2.82-.55.59-1.61.89-3.19.89h-21.54c-.99,0-1.86-.25-2.6-.74ZM2369.67,268.69c-1.54-.94-3.44-1.41-5.72-1.41s-4.33.69-6.17,2.08c-1.83,1.39-3.25,3.71-4.23,6.98-.99,3.27-1.49,7.78-1.49,13.52s.47,10.15,1.41,13.52c.94,3.37,2.3,5.77,4.08,7.21,1.78,1.44,3.91,2.15,6.39,2.15,1.98,0,3.74-.42,5.27-1.26,1.53-.84,2.77-2.01,3.71-3.49.94-1.49,1.41-3.17,1.41-5.05v-30.01c-1.59-1.88-3.15-3.29-4.68-4.23Z"/>
      <path class="cls-4" d="M2459.77,268.25c-2.38-1.43-5.4-2.15-9.06-2.15-2.58,0-4.8.45-6.69,1.34-1.88.89-2.82,2.18-2.82,3.86,0,.69.32,1.39.97,2.08.64.69,2.3,1.29,4.98,1.78l15.75,3.27c9.21,1.88,15.67,5.15,19.39,9.81,3.71,4.66,5.57,9.86,5.57,15.6s-1.59,10.6-4.75,14.56c-3.17,3.96-7.58,6.98-13.22,9.06-5.65,2.08-12.18,3.12-19.61,3.12-9.51,0-17.43-1.58-23.77-4.75-6.34-3.17-10.75-6.98-13.22-11.44-.5-.89-.74-1.73-.74-2.53s.35-1.39,1.04-1.78l12.92-6.54c1.29-.59,2.25-.84,2.9-.74.64.1,1.21.45,1.71,1.04,1.19,1.29,2.5,2.6,3.94,3.94,1.43,1.34,3.37,2.45,5.79,3.34,2.43.89,5.62,1.29,9.58,1.19,2.08-.1,3.96-.32,5.65-.67,1.68-.35,3.02-.92,4.01-1.71.99-.79,1.49-1.78,1.49-2.97,0-.99-.42-1.88-1.26-2.67-.84-.79-2.7-1.43-5.57-1.93l-15.15-2.67c-7.53-1.39-13.42-3.99-17.68-7.8-4.26-3.81-6.44-9.09-6.54-15.82,0-5.15,1.36-9.78,4.09-13.89,2.72-4.11,6.76-7.35,12.11-9.73s11.83-3.57,19.46-3.57c8.12,0,15.03,1.46,20.72,4.38,5.69,2.92,9.63,6.22,11.81,9.88.49.69.89,1.49,1.19,2.38.3.89-.1,1.58-1.19,2.08l-13.67,6.54c-.89.4-1.69.47-2.38.22-.69-.25-1.34-.72-1.93-1.41-1.49-1.68-3.42-3.24-5.79-4.68Z"/>
    </g>
    <circle class="cls-2" cx="191.64" cy="191.64" r="183.64"/>
    <circle class="cls-3" cx="167.32" cy="215.97" r="149.25"/>
    <circle class="cls-1" cx="142.97" cy="240.32" r="113.03"/>
  </g>
</svg>